<svg width="266" height="33" viewBox="0 0 266 33" fill="none" xmlns="http://www.w3.org/2000/svg">
<g clip-path="url(#clip0_44_897)">
<path d="M37.7075 0.748749H49.1144C51.8534 0.748749 55.5934 0.748749 57.4524 1.84985C58.6034 2.51847 59.5536 3.48444 60.2038 4.64669C60.854 5.80894 61.1803 7.12476 61.1483 8.45646C61.2138 9.97642 60.7968 11.4781 59.9569 12.7461C59.117 14.0141 57.8975 14.9832 56.4734 15.5145V15.6356C58.2297 15.9411 59.812 16.8836 60.9179 18.2831C62.0238 19.6827 62.5758 21.441 62.4683 23.2222C62.4683 27.8138 59.1684 32.2732 52.9094 32.2732H37.7075V0.748749ZM50.2585 14.2923C55.0214 14.2923 56.9574 12.6186 56.9574 9.26024C56.9574 4.85583 53.9214 4.28327 50.2585 4.28327H41.8875V14.2923H50.2585ZM52.3814 28.7167C56.0334 28.7167 58.2884 26.5145 58.2884 23.0681C58.2884 18.972 54.9884 17.8268 51.4574 17.8268H41.8875V28.7167H52.3814Z" fill="black"/>
<path d="M64.9653 0.748749H68.7053V32.2512H64.9653V0.748749Z" fill="black"/>
<path d="M81.8062 8.90793C89.0331 8.90793 92.8061 14.1602 92.8061 20.8659C92.8061 27.5716 88.9781 32.7798 81.8062 32.7798C74.6342 32.7798 70.7402 27.5275 70.7402 20.8659C70.7402 14.2042 74.5792 8.90793 81.8062 8.90793ZM81.8062 29.4655C85.7221 29.4655 88.9011 26.3824 88.9011 20.8659C88.9011 15.3494 85.7221 12.2222 81.8062 12.2222C77.8902 12.2222 74.7112 15.3494 74.7112 20.8659C74.7112 26.3824 77.8792 29.4655 81.8062 29.4655Z" fill="black"/>
<path d="M110.395 16.7367C110.214 15.4002 109.528 14.184 108.478 13.3382C107.429 12.4924 106.095 12.0812 104.752 12.1892C99.34 12.1892 97.657 16.5055 97.657 21.0971C97.657 25.3363 99.56 29.4324 104.257 29.4324C107.92 29.4324 110.032 27.3624 110.516 23.9269H114.355C113.519 29.5205 110.076 32.7908 104.301 32.7908C97.3381 32.7908 93.6421 27.979 93.6421 21.1411C93.6421 14.3033 97.162 8.91891 104.389 8.91891C109.592 8.91891 113.651 11.3524 114.223 16.7808L110.395 16.7367Z" fill="black"/>
<path d="M116.28 0.748749H120.031V19.4124L130.426 9.43642H135.453L126.411 17.7387L136.113 32.2512H131.35L123.551 20.3373L120.031 23.6406V32.2843H116.28V0.748749Z" fill="black"/>
<path d="M152.965 0C159.796 0 165.351 3.09409 166.495 10.4605H162.304C161.468 5.69269 157.673 3.53456 152.954 3.53456C145.331 3.53456 142.163 10.1962 142.163 16.9019C142.163 23.6076 145.947 29.4655 152.954 29.4655C159.477 29.4655 163.272 24.973 163.052 19.1922H152.998V15.6356H166.792V32.2293H164.152L163.052 28.2983C161.841 29.8023 160.3 31.0069 158.549 31.8185C156.798 32.63 154.883 33.0268 152.954 32.978C143.571 32.978 137.972 25.3474 137.972 17.0891C137.983 7.92795 143.01 0 152.965 0Z" fill="black"/>
<path d="M190.309 32.1522C189.485 32.5922 188.559 32.805 187.625 32.7688C185.689 32.7688 184.457 31.6677 184.457 29.2342C183.478 30.396 182.247 31.3184 180.857 31.931C179.467 32.5436 177.956 32.8301 176.439 32.7688C172.292 32.7688 168.893 30.952 168.893 26.3714C168.893 21.2072 172.732 20.0621 176.593 19.3574C180.684 18.5205 184.292 18.8729 184.292 15.999C184.292 12.6957 181.553 12.2112 179.222 12.2112C176.043 12.2112 173.722 13.1802 173.535 16.5275H169.795C170.015 10.8899 174.327 8.89691 179.442 8.89691C183.544 8.89691 187.988 9.82184 187.988 15.1622V26.8999C187.988 28.6617 187.988 29.4544 189.176 29.4544C189.552 29.4368 189.923 29.3626 190.276 29.2342L190.309 32.1522ZM184.237 20.4585C181.322 22.6607 172.864 20.4585 172.864 26.1071C172.864 28.5736 174.976 29.4104 177.263 29.4104C182.191 29.4104 184.226 26.3714 184.226 24.2573L184.237 20.4585Z" fill="black"/>
<path d="M191.486 9.43643H195.017V12.7948H195.105C195.879 11.5531 196.967 10.5391 198.26 9.8562C199.553 9.17334 201.004 8.84613 202.464 8.90792C205.28 8.90792 207.788 10.009 208.723 12.7948C209.478 11.5867 210.532 10.5942 211.783 9.91329C213.034 9.23236 214.439 8.88608 215.862 8.90792C220.394 8.90792 223.441 10.8128 223.441 15.5145V32.2402H219.69V17.2983C219.69 14.4685 218.942 12.2222 215.29 12.2222C211.638 12.2222 209.35 14.5125 209.35 18.047V32.2512H205.599V17.2983C205.599 14.3363 204.675 12.2222 201.32 12.2222C199.758 12.2369 198.259 12.8477 197.131 13.9301C196.003 15.0124 195.329 16.4848 195.248 18.047V32.2512H191.497L191.486 9.43643Z" fill="black"/>
<path d="M246.024 25.017C245.012 30.0821 241.448 32.7798 236.289 32.7798C229.018 32.7798 225.575 27.7037 225.355 20.7778C225.355 13.8959 229.854 8.90793 236.069 8.90793C244.132 8.90793 246.596 16.4615 246.376 21.967H229.326C229.194 25.9419 231.438 29.4655 236.421 29.4655C239.545 29.4655 241.668 28.012 242.328 25.0611L246.024 25.017ZM242.416 18.6637C242.373 16.9403 241.659 15.302 240.426 14.0985C239.193 12.895 237.539 12.2217 235.816 12.2222C234.965 12.2135 234.12 12.3735 233.33 12.6931C232.541 13.0126 231.822 13.4853 231.216 14.0841C230.609 14.6828 230.127 15.3956 229.798 16.1816C229.468 16.9676 229.296 17.8111 229.293 18.6637H242.416Z" fill="black"/>
<path d="M250.402 25.0611C250.534 28.3644 253.493 29.4655 256.529 29.4655C258.872 29.4655 262.029 28.937 262.029 26.0741C262.029 20.2052 247.135 24.1802 247.135 15.3934C247.135 10.8128 251.634 8.90793 255.638 8.90793C260.753 8.90793 264.625 10.5045 264.988 16.0541H261.303C261.083 13.1472 258.432 12.2222 256.012 12.2222C253.812 12.2222 251.161 12.8389 251.161 15.1291C251.161 17.7828 255.132 18.3113 258.619 19.1041C262.359 19.9409 266.066 21.2182 266.066 25.5896C266.066 31.0951 260.995 32.7798 256.364 32.7798C251.26 32.7798 246.937 30.7097 246.717 25.0721L250.402 25.0611Z" fill="black"/>
<path d="M31.4598 0.748749H0V32.2402H31.4598V0.748749Z" fill="black"/>
</g>
<defs>
<clipPath id="clip0_44_897">
<rect width="266" height="33" fill="white"/>
</clipPath>
</defs>
</svg>
