<svg fill="white" data-name="Layer 1" xmlns="http://www.w3.org/2000/svg" viewBox="0 0 1229.7 249.6" width="9.5rem"><path d="M135.1,210.6v38.9l-17-12V212.8l-8,.2c-2.8,0-5.4-.1-8.1-.3v36.9l-17-12v-27c-50-10.3-85-51-85-104.1C0,44.9,47-.1,110.3,0c32.2,0,60.2,11,79.2,32.4L170.2,51.1c-16-17-35.7-24.7-58.6-24.7-47.1,0-81.9,33.9-81.9,80,0,36.9,22.3,65.9,55.3,76.1V106.4l17,12v67.5c3.1.3,6.3.5,9.5.5s4.4,0,6.6-.2V129.8l17,12v41.5a75.3,75.3,0,0,0,32.1-18.8l22.3,15.8C175.6,196,156.8,206.2,135.1,210.6Zm136.7.1H242V2.4h29.8Zm164.9,0H407.2L315.6,2.4h32.1l75,171.1L498.3,2.4h29.8Zm162.5,0H569.4V2.4h29.8ZM818.8,28.3H747.4V210.7H717.9V28.3H646.5V2.4H818.8Zm192.6,182.4-78.3-178-78.3,178H824.2L918.5,2.4H948l94.6,208.3ZM1149,213c-31.9,0-63.1-10.7-79.8-26.2l11-23.2c15.5,14,42,24.1,68.8,24.1,36,0,51.5-13.9,51.5-32.1,0-50.9-126.2-18.7-126.2-96.1,0-32.1,25-59.5,79.8-59.5,24.4,0,49.7,6.6,67,18.5l-9.8,23.8a107.3,107.3,0,0,0-57.1-17c-35.4,0-50.6,14.8-50.6,33,0,50.9,126.2,19.1,126.1,95.5C1229.7,185.6,1204.1,213,1149,213Z"></path></svg>