<?xml version="1.0" encoding="UTF-8"?><svg id="Layer_1" xmlns="http://www.w3.org/2000/svg" xmlns:xlink="http://www.w3.org/1999/xlink" viewBox="0 0 1767 464"><defs><style>.cls-1{fill:url(#linear-gradient-2);}.cls-2{fill:#fff;font-family:MicrosoftSansSerif, 'Microsoft Sans Serif';font-size:176px;stroke:#000;stroke-miterlimit:10;}.cls-3{fill:url(#linear-gradient);}</style><linearGradient id="linear-gradient" x1="45.812" y1="254.134" x2="481.549" y2="254.134" gradientTransform="translate(0 488) scale(1 -1)" gradientUnits="userSpaceOnUse"><stop offset="0" stop-color="#ffd75f"/><stop offset=".5" stop-color="#ff67c3"/><stop offset=".994" stop-color="#6bd6e3"/></linearGradient><linearGradient id="linear-gradient-2" x1="45.812" y1="254.138" x2="481.549" y2="254.138" xlink:href="#linear-gradient"/></defs><path class="cls-3" d="m492.654,223.028c-.182-3.604-.449-7.208-.809-10.804s-.805-7.179-1.338-10.757c-.534-3.574-1.156-7.132-1.863-10.673-.703-3.545-1.499-7.068-2.38-10.575-.881-3.502-1.847-6.984-2.901-10.444-1.05-3.456-2.185-6.882-3.405-10.287-1.224-3.405-2.52-6.772-3.905-10.109s-2.85-6.636-4.4-9.902c-1.542-3.27-3.172-6.497-4.875-9.681-1.707-3.181-3.49-6.327-5.349-9.423-1.855-3.1-3.79-6.149-5.798-9.156s-4.087-5.959-6.243-8.856c-2.151-2.905-4.375-5.751-6.67-8.546-2.291-2.791-4.65-5.527-7.081-8.199-2.427-2.681-4.917-5.298-7.471-7.852-2.554-2.554-5.171-5.048-7.848-7.471-2.681-2.427-5.413-4.79-8.208-7.081s-5.641-4.515-8.542-6.666c-2.905-2.156-5.857-4.235-8.856-6.247-3.007-2.007-6.06-3.939-9.156-5.798-3.1-1.859-6.243-3.642-9.427-5.345-3.189-1.707-6.412-3.333-9.677-4.879-3.265-1.542-6.569-3.011-9.906-4.396s-6.704-2.689-10.109-3.905c-3.397-1.224-6.831-2.359-10.287-3.409-3.456-1.05-6.937-2.016-10.444-2.901-3.502-.877-7.026-1.673-10.571-2.38-3.549-.711-7.102-1.33-10.681-1.859-3.57-.538-7.157-.983-10.753-1.338-3.6-.36-7.2-.627-10.808-.809s-7.217-.275-10.833-.28c-3.613,0-7.229.085-10.838.263-3.613.178-7.212.445-10.812.8-3.596.356-7.187.796-10.761,1.321-3.574.534-7.132,1.152-10.681,1.855-3.545.703-7.068,1.495-10.579,2.376-3.502.877-6.988,1.842-10.448,2.888-3.456,1.05-6.886,2.181-10.291,3.397s-6.776,2.52-10.113,3.901c-3.342,1.385-6.645,2.846-9.91,4.396-3.27,1.542-6.497,3.168-9.681,4.875-3.189,1.703-6.332,3.486-9.432,5.345-3.1,1.855-6.154,3.79-9.161,5.798s-5.959,4.087-8.864,6.243c-2.905,2.151-5.751,4.375-8.546,6.666-2.795,2.295-5.531,4.654-8.212,7.085-2.677,2.427-5.29,4.917-7.852,7.471-2.554,2.558-5.048,5.175-7.471,7.852-2.431,2.681-4.79,5.417-7.085,8.212-2.291,2.795-4.515,5.641-6.666,8.546s-4.231,5.857-6.243,8.864c-2.007,3.007-3.943,6.06-5.798,9.161-1.859,3.1-3.642,6.247-5.345,9.432-1.707,3.189-3.333,6.412-4.875,9.681-1.55,3.27-3.011,6.573-4.396,9.91-1.381,3.337-2.685,6.708-3.901,10.113s-2.35,6.836-3.397,10.291c-1.05,3.46-2.012,6.946-2.888,10.448-.881,3.507-1.673,7.03-2.376,10.579-.703,3.549-1.321,7.102-1.855,10.681-.525,3.574-.97,7.166-1.321,10.761-.356,3.6-.623,7.2-.8,10.812-.178,3.608-.263,7.225-.263,10.838s.085,7.229.263,10.838c.178,3.608.445,7.212.8,10.808.356,3.6.796,7.187,1.321,10.761.534,3.574,1.152,7.136,1.855,10.681.703,3.549,1.495,7.073,2.376,10.579.877,3.507,1.842,6.988,2.888,10.448,1.05,3.46,2.181,6.891,3.397,10.296s2.52,6.772,3.901,10.113c1.385,3.342,2.846,6.645,4.396,9.906,1.542,3.27,3.168,6.501,4.875,9.686,1.703,3.189,3.486,6.331,5.345,9.432,1.855,3.096,3.79,6.149,5.798,9.156s4.087,5.963,6.243,8.868c2.151,2.901,4.375,5.751,6.666,8.547,2.295,2.795,4.654,5.527,7.085,8.208,2.427,2.681,4.917,5.298,7.471,7.852,2.558,2.554,5.175,5.048,7.852,7.479,2.681,2.427,5.417,4.79,8.212,7.081,2.795,2.291,5.641,4.515,8.546,6.67,2.905,2.151,5.857,4.231,8.864,6.243s6.06,3.939,9.161,5.798c3.1,1.859,6.247,3.638,9.432,5.345,3.189,1.703,6.412,3.325,9.681,4.875,3.27,1.542,6.573,3.007,9.91,4.392,3.337,1.385,6.708,2.685,10.113,3.901,3.405,1.215,6.836,2.355,10.291,3.405,3.46,1.046,6.946,2.012,10.448,2.888,3.507.877,7.03,1.669,10.579,2.372s7.102,1.321,10.681,1.855c3.574.534,7.166.974,10.761,1.326,3.6.356,7.2.618,10.812.796,3.608.178,7.225.267,10.838.267s7.229-.093,10.838-.267c3.608-.178,7.212-.44,10.808-.796,3.6-.356,7.187-.796,10.761-1.326,3.574-.534,7.136-1.152,10.681-1.855s7.073-1.495,10.579-2.372c3.507-.877,6.988-1.847,10.448-2.888,3.46-1.05,6.891-2.185,10.296-3.405,3.405-1.215,6.772-2.516,10.113-3.901s6.645-2.846,9.906-4.392c3.27-1.55,6.501-3.172,9.686-4.875,3.189-1.707,6.331-3.486,9.432-5.345,3.096-1.859,6.149-3.79,9.156-5.798,3.007-2.007,5.963-4.087,8.868-6.243,2.901-2.156,5.751-4.379,8.547-6.67,2.795-2.291,5.527-4.654,8.208-7.081,2.681-2.431,5.298-4.921,7.852-7.479,2.554-2.554,5.048-5.171,7.479-7.852,2.427-2.681,4.79-5.413,7.081-8.208,2.291-2.795,4.515-5.645,6.67-8.547,2.151-2.905,4.231-5.861,6.243-8.868,2.007-3.007,3.939-6.06,5.798-9.156,1.859-3.1,3.638-6.247,5.345-9.432,1.703-3.189,3.325-6.416,4.875-9.686,1.542-3.265,3.007-6.569,4.392-9.906,1.385-3.342,2.685-6.708,3.901-10.113,1.215-3.405,2.355-6.836,3.405-10.296,1.046-3.46,2.012-6.941,2.888-10.448.877-3.502,1.669-7.03,2.372-10.579.703-3.541,1.321-7.102,1.855-10.681.534-3.574.974-7.162,1.326-10.761.356-3.596.618-7.2.796-10.808s.267-7.225.267-10.838c-.004-3.608-.097-7.225-.275-10.833Zm-25.94,20.401c-.157,3.181-.394,6.365-.703,9.537-.313,3.172-.703,6.336-1.173,9.495-.466,3.155-1.012,6.293-1.635,9.423-.623,3.126-1.317,6.243-2.096,9.334-.775,3.092-1.626,6.171-2.55,9.216-.923,3.054-1.927,6.082-2.998,9.084-1.076,3.007-2.223,5.976-3.443,8.923-1.224,2.948-2.516,5.861-3.879,8.746-1.368,2.88-2.799,5.726-4.299,8.542-1.503,2.812-3.079,5.59-4.718,8.326-1.639,2.732-3.346,5.425-5.12,8.081-1.77,2.651-3.604,5.26-5.506,7.818-1.897,2.562-3.858,5.078-5.887,7.539-2.024,2.469-4.104,4.879-6.247,7.246-2.143,2.363-4.341,4.667-6.594,6.924-2.257,2.253-4.561,4.451-6.924,6.594-2.367,2.143-4.777,4.222-7.246,6.247-2.465,2.029-4.976,3.99-7.539,5.887-2.558,1.902-5.167,3.74-7.818,5.506-2.655,1.774-5.349,3.481-8.081,5.12-2.736,1.639-5.514,3.21-8.326,4.718-2.812,1.499-5.662,2.935-8.542,4.299-2.884,1.359-5.798,2.655-8.746,3.879-2.948,1.215-5.921,2.367-8.923,3.443-2.998,1.076-6.031,2.075-9.084,2.998-3.049.923-6.124,1.774-9.216,2.55-3.092.775-6.209,1.47-9.334,2.096-3.13.623-6.268,1.169-9.423,1.635-3.159.47-6.323.864-9.495,1.173-3.172.313-6.357.546-9.538.703-3.189.152-6.374.233-9.563.233s-6.378-.08-9.563-.233c-3.189-.157-6.365-.394-9.542-.703-3.172-.313-6.336-.703-9.491-1.173-3.155-.466-6.298-1.012-9.423-1.635-3.13-.623-6.243-1.317-9.338-2.096-3.092-.775-6.162-1.626-9.216-2.55s-6.077-1.927-9.084-2.998c-2.998-1.076-5.976-2.223-8.923-3.443-2.943-1.224-5.861-2.516-8.741-3.879-2.884-1.368-5.734-2.799-8.546-4.299-2.812-1.503-5.582-3.079-8.322-4.718-2.736-1.639-5.429-3.346-8.081-5.12-2.651-1.77-5.26-3.604-7.822-5.506-2.558-1.897-5.078-3.858-7.539-5.887-2.465-2.024-4.879-4.104-7.242-6.247-2.363-2.143-4.671-4.341-6.924-6.594-2.257-2.257-4.46-4.561-6.594-6.924-2.143-2.367-4.227-4.777-6.251-7.246-2.024-2.465-3.981-4.976-5.887-7.539-1.897-2.558-3.735-5.167-5.506-7.818-1.775-2.655-3.477-5.349-5.116-8.081-1.643-2.736-3.21-5.514-4.718-8.326-1.503-2.812-2.939-5.662-4.299-8.542-1.368-2.884-2.655-5.798-3.879-8.746s-2.367-5.921-3.443-8.923c-1.08-2.998-2.075-6.031-2.998-9.084-.923-3.049-1.779-6.124-2.554-9.216-.771-3.092-1.47-6.209-2.096-9.334-.623-3.13-1.165-6.268-1.635-9.423-.47-3.159-.86-6.323-1.169-9.495-.318-3.172-.546-6.357-.703-9.538-.157-3.189-.233-6.374-.233-9.563s.076-6.378.233-9.563c.157-3.189.39-6.365.703-9.542.313-3.172.699-6.336,1.169-9.491.47-3.155,1.012-6.298,1.635-9.423.623-3.13,1.321-6.243,2.096-9.338.775-3.092,1.631-6.162,2.554-9.216.923-3.054,1.923-6.077,2.998-9.084,1.076-2.998,2.219-5.976,3.443-8.923,1.224-2.943,2.511-5.861,3.879-8.741,1.359-2.884,2.795-5.734,4.299-8.546,1.503-2.812,3.07-5.586,4.718-8.322,1.639-2.736,3.342-5.429,5.116-8.081s3.608-5.26,5.506-7.822c1.902-2.558,3.862-5.078,5.887-7.539,2.024-2.465,4.108-4.879,6.251-7.242,2.139-2.363,4.337-4.671,6.594-6.924,2.253-2.257,4.561-4.46,6.924-6.594,2.363-2.143,4.777-4.227,7.242-6.251,2.465-2.024,4.981-3.981,7.539-5.887,2.562-1.897,5.171-3.735,7.822-5.506,2.651-1.775,5.345-3.477,8.081-5.116,2.736-1.643,5.506-3.21,8.322-4.718,2.812-1.503,5.662-2.939,8.546-4.299,2.88-1.368,5.798-2.655,8.741-3.879,2.948-1.224,5.925-2.367,8.923-3.443,3.007-1.08,6.031-2.075,9.084-2.998s6.124-1.779,9.216-2.554c3.096-.771,6.209-1.47,9.338-2.096,3.126-.623,6.268-1.165,9.423-1.635s6.319-.86,9.491-1.169c3.176-.318,6.357-.546,9.542-.703,3.181-.157,6.37-.233,9.563-.233s6.374.076,9.563.233c3.181.157,6.365.39,9.538.703s6.336.699,9.495,1.169c3.155.47,6.293,1.012,9.423,1.635,3.126.623,6.243,1.321,9.334,2.096s6.171,1.631,9.216,2.554c3.054.923,6.082,1.923,9.084,2.998,3.007,1.076,5.976,2.219,8.923,3.443s5.861,2.511,8.746,3.879c2.88,1.359,5.726,2.795,8.542,4.299s5.59,3.07,8.326,4.718c2.732,1.639,5.425,3.342,8.081,5.116,2.651,1.775,5.26,3.608,7.818,5.506,2.562,1.902,5.078,3.862,7.539,5.887,2.469,2.024,4.879,4.108,7.246,6.251,2.363,2.139,4.667,4.337,6.924,6.594,2.253,2.253,4.451,4.561,6.594,6.924s4.222,4.777,6.247,7.242c2.029,2.465,3.99,4.981,5.887,7.539,1.902,2.562,3.74,5.171,5.506,7.822,1.774,2.651,3.481,5.345,5.12,8.081s3.21,5.506,4.718,8.322c1.499,2.812,2.935,5.662,4.299,8.546,1.359,2.88,2.655,5.798,3.879,8.741,1.215,2.948,2.367,5.925,3.443,8.923,1.076,3.007,2.075,6.031,2.998,9.084.923,3.054,1.774,6.124,2.55,9.216.775,3.096,1.47,6.209,2.096,9.338.623,3.126,1.169,6.268,1.635,9.423.47,3.155.864,6.319,1.173,9.491.313,3.176.546,6.357.703,9.542.152,3.181.233,6.37.233,9.563s-.08,6.374-.233,9.563Z"/><path class="cls-1" d="m169.421,336.5l143.694-61.583,61.583-143.694-143.694,61.583-61.583,143.694Zm155.908-155.903l-31.962,74.576h0l-42.614-42.618,74.576-31.958Z"/><text class="cls-2" transform="translate(527.212 287.707)"><tspan x="0" y="0">Compass Labs</tspan></text></svg>