<?xml version="1.0" encoding="utf-8"?>
<!-- Generator: Adobe Illustrator 26.0.1, SVG Export Plug-In . SVG Version: 6.00 Build 0)  -->
<svg version="1.1" id="Layer_1" xmlns="http://www.w3.org/2000/svg" xmlns:xlink="http://www.w3.org/1999/xlink" x="0px" y="0px"
	 viewBox="0 0 345.8 61.6" style="enable-background:new 0 0 345.8 61.6;display:none;" xml:space="preserve">
<style type="text/css">
	.st0{fill:#56FF97;}
	.st1{fill-rule:evenodd;clip-rule:evenodd;fill:#56FF97;}
</style>
<g style="display:inline;">
	<g>
		<g>
			<g>
				<g>
					<g>
						<g>
							<g id="图层_1_00000134218490962963842700000017868308609748152719_">
								<g>
									<path class="st0" d="M0,61l2.8-11.9h28.5l1.6-1.3l0.7-2.8l-0.9-1.1H13l-7.7-10l2.6-11.3l9.7-7.9h35.2L50,26.6H22.9
										l-1.7,1.3l-0.6,2.8l0.9,1.1h19.7l7.7,10l-2.6,11.3L36.5,61L0,61z"/>
									<path class="st0" d="M62.6,61l7.9-34.4H53.6l2.8-11.9h48.3L102,26.6H85.1L77.1,61H62.6z"/>
									<path class="st0" d="M98,61l10.7-46.3h42.4l-2.8,11.9h-27.8l-1.3,5.6h20.5l-2.5,10.6h-20.5l-1.4,6.3h28.5L141,61L98,61z"/>
									<path class="st0" d="M191,14.7h-35.7L144.6,61h14.6l2.6-11.6h22.6l10.1-8.2l3.9-16.9L191,14.7z M181.3,35.5l-2.4,2h-14.2
										l2.5-10.9h14.4l1.4,1.8L181.3,35.5z"/>
									<path class="st0" d="M210.3,61L221,14.7h20.6l7.1,30.5h2l7.1-30.5h13.6L260.6,61H240l-7.1-30.5h-2.1l-7,30.5H210.3z"/>
									<polygon class="st1" points="211.8,0 199.8,22.3 208.1,22.2 207.4,36.4 218.1,14.7 210.1,14.7 									"/>
								</g>
							</g>
						</g>
					</g>
				</g>
			</g>
		</g>
	</g>
	<g>
		<path class="st1" d="M287.2,32.7c0-0.7-0.6-1.2-1.2-1.2h-9.6c-0.7,0-1.2,0.6-1.2,1.2l0,0c0,0.7,0.6,1.2,1.2,1.2h9.6
			C286.7,33.9,287.2,33.3,287.2,32.7L287.2,32.7L287.2,32.7z"/>
		<path class="st1" d="M295.3,43.2c0-0.7-0.6-1.2-1.2-1.2h-9.6c-0.7,0-1.2,0.6-1.2,1.2l0,0c0,0.7,0.6,1.2,1.2,1.2h9.6
			C294.7,44.4,295.3,43.9,295.3,43.2L295.3,43.2L295.3,43.2z"/>
		<path class="st1" d="M292.5,38c0,0.7-0.6,1.2-1.2,1.2h-10.6c-0.7,0-1.2-0.6-1.2-1.2c0-0.7,0.6-1.2,1.2-1.2h10.6
			C292,36.7,292.5,37.3,292.5,38z"/>
		<path class="st1" d="M277,36.7c-0.7,0-1.2,0.6-1.2,1.2l0,0c0,0.7,0.6,1.2,1.2,1.2h0.5c0.7,0,1.2-0.6,1.2-1.2l0,0
			c0-0.7-0.6-1.2-1.2-1.2L277,36.7z"/>
		<path class="st1" d="M299.4,48.5c0-0.7-0.6-1.2-1.2-1.2h-20.6c-0.7,0-1.2,0.6-1.2,1.2l0,0c0,0.7,0.6,1.2,1.2,1.2h20.6
			C298.9,49.7,299.4,49.2,299.4,48.5L299.4,48.5L299.4,48.5z"/>
		<path class="st1" d="M337.4,47.1c-3.8-1.5-5.6-2.4-7.2-1c0.8-1.6,0.5-1.7-0.2-2.8c-1.3-2.3-4.8-6.1-6-13.4c0,0,1.9-5.2,2.1-8.5
			c0,0,0.7-2.1-2.5-1.1c0,0-4.1,2.5-6.3,3.1c-4-0.5-9.9-3.4-12.1-7.8c0,0,1.8-3.8,0.2-4.7c-1.1-0.6-4.4,2.8-4.4,2.8l-10.7,12.4
			l-0.8,1.5c-0.3,0.6-0.3,1.4,0.2,2.1c2.8,3.8,13.9,18.5,20.3,26.4c-18.1,0.1-27.9,2.9-20.9,3.9c5.7,0.8,18.5,0.6,28.2,0.5
			c1.2,0.4,2.4,0.7,3.7,0.8l16.4,0.1c2.1-0.1,4-0.3,5.6-0.4c1-0.1,1.9-0.8,2.2-1.7C347,54.7,344.2,49.8,337.4,47.1z M308.3,45.4
			l0.4-7.3l-4.3,0l6.1-11.5l-0.9,7.5h4.1L308.3,45.4z"/>
	</g>
</g>
</svg>
