<?xml version="1.0" encoding="UTF-8"?><svg id="Logo_icon" xmlns="http://www.w3.org/2000/svg" xmlns:xlink="http://www.w3.org/1999/xlink" viewBox="0 0 814.215 313.3"><defs><style>.cls-1{fill:url(#linear-gradient-4);}.cls-1,.cls-2,.cls-3,.cls-4{fill-rule:evenodd;}.cls-2{fill:url(#linear-gradient-2);}.cls-5{letter-spacing:-.056em;}.cls-3{fill:url(#linear-gradient);}.cls-6{fill:#fff;font-family:FranklinGothic-Medium, 'Franklin Gothic Medium';font-size:225px;}.cls-4{fill:url(#linear-gradient-3);}</style><linearGradient id="linear-gradient" x1="167.423" y1="411.151" x2="136.955" y2="495.317" gradientTransform="translate(0 499.645) scale(1 -1)" gradientUnits="userSpaceOnUse"><stop offset="0" stop-color="#4519bf"/><stop offset="1" stop-color="#e93ffc"/></linearGradient><linearGradient id="linear-gradient-2" x1="166.382" y1="189.963" x2="136.697" y2="271.965" gradientTransform="translate(0 499.645) scale(1 -1)" gradientUnits="userSpaceOnUse"><stop offset="0" stop-color="#e93ffc"/><stop offset="1" stop-color="#4519bf"/></linearGradient><linearGradient id="linear-gradient-3" x1="6.459" y1="308.757" x2="297.777" y2="362.75" gradientTransform="translate(0 499.645) scale(1 -1)" gradientUnits="userSpaceOnUse"><stop offset="0" stop-color="#4519bf"/><stop offset="1" stop-color="#e93ffc"/></linearGradient><linearGradient id="linear-gradient-4" x1="4.83" y1="323.211" x2="295.915" y2="377.16" gradientTransform="translate(0 499.645) scale(1 -1)" gradientUnits="userSpaceOnUse"><stop offset="0" stop-color="#e93ffc"/><stop offset="1" stop-color="#4519bf"/></linearGradient></defs><path id="_4" class="cls-3" d="M132.205,7.974c-5.771,5.77-11.539,11.539-17.31,17.31-10.632,10.635-10.632,28.037,0,38.671,5.771,5.771,11.539,11.539,17.31,17.31,10.634,10.632,28.036,10.632,38.67,0,8.106-4.535,13.601-10.447,17.309-17.31,10.632-10.634,10.632-28.036,0-38.671-5.771-5.77-11.539-11.539-17.309-17.31-10.635-10.632-28.037-10.632-38.67,0Z"/><path id="_3" class="cls-2" d="M170.874,305.326c5.771-5.77,11.54-11.538,17.311-17.31,10.632-10.633,10.632-28.036,0-38.669-5.771-5.772-11.54-11.54-17.311-17.31-10.634-10.633-28.036-10.633-38.67,0-8.106,4.534-13.601,10.447-17.31,17.31-10.633,10.633-10.633,28.036,0,38.669,5.77,5.772,11.539,11.54,17.31,17.31,10.634,10.633,28.036,10.633,38.67,0Z"/><path id="_2" class="cls-4" d="M194.685,31.807l96.739,96.744c.126,.122,.255,.248,.374,.377,12.924,13.161,14.743,33.305,5.474,48.438-4.486,7.324-10.556,13.369-17.442,18.451-35.759,26.406-79.232,37.614-121.534,33.598-2.919-.276-4.912-.577-7.99-.477-9.796,.317-19.504,4.156-26.94,11.593h0c-14.542,14.541-15.424,37.776-2.647,53.374l-12.495-12.543c-34.457-35.576-35.892-87.126-11.478-123.507l35.436,35.437c10.631,10.631,28.036,10.635,38.671,0l9.221-9.222,8.316-8.317,3.67-3.669c5.172-5.171,9.772-10.766,13.584-16.667,.08-.125,.162-.252,.243-.377,.166-.424,.411-.818,.67-1.268,21.806-38.073,15.881-89.806-11.465-121.513-.133-.154-.265-.303-.406-.452Z"/><path id="_1" class="cls-1" d="M108.223,281.363L11.658,184.793c-.126-.122-.255-.247-.374-.376-12.923-13.161-14.743-33.306-5.474-48.438,4.486-7.324,10.556-13.369,17.442-18.45,35.761-26.407,79.233-37.615,121.535-33.598,2.919,.276,4.913,.576,7.99,.477,9.796-.317,19.504-4.156,26.94-11.593h0c14.543-14.542,15.424-37.777,2.648-53.375l12.321,12.368,.336,.359c30.09,32.619,34.778,80.238,14.06,117.526-.414,.745-.839,1.493-1.276,2.231l-.165,.278c-.556,.924-1.108,1.833-1.692,2.746l-.06,.094-34.987-34.988c-10.635-10.633-28.036-10.633-38.67,0l-9.221,9.22-8.317,8.319-3.755,3.753c-38.4,38.403-39.075,99.603-3.108,139.579l.394,.439Z"/><text class="cls-6" transform="translate(317.412 234.062)"><tspan class="cls-5" x="0" y="0">T</tspan><tspan x="96.131" y="0">onic</tspan></text></svg>